<mxfile host="app.diagrams.net" agent="Mozilla/5.0 (Windows NT 10.0; Win64; x64) AppleWebKit/537.36 (KHTML, like Gecko) Chrome/131.0.0.0 Safari/537.36" version="26.0.4">
  <diagram name="Halaman-1" id="P2AcPCzLx3uyLkAuYhX-">
    <mxGraphModel dx="724" dy="426" grid="1" gridSize="10" guides="1" tooltips="1" connect="1" arrows="1" fold="1" page="1" pageScale="1" pageWidth="827" pageHeight="1169" math="0" shadow="0">
      <root>
        <mxCell id="0" />
        <mxCell id="1" parent="0" />
        <mxCell id="_7imUFlFsDGHjJVqN3OE-2" value="Unit Luar Rumah Sakit" style="ellipse;whiteSpace=wrap;html=1;fillColor=#1ba1e2;fontColor=#ffffff;strokeColor=#006EAF;" parent="1" vertex="1">
          <mxGeometry x="260" y="20" width="100" height="70" as="geometry" />
        </mxCell>
        <mxCell id="_7imUFlFsDGHjJVqN3OE-4" value="Unit Peminjam DRM" style="rounded=0;whiteSpace=wrap;html=1;fillColor=#dae8fc;strokeColor=#6c8ebf;" parent="1" vertex="1">
          <mxGeometry x="30" y="20" width="120" height="60" as="geometry" />
        </mxCell>
        <mxCell id="_7imUFlFsDGHjJVqN3OE-5" value="Membuat surat permohonan" style="rounded=1;whiteSpace=wrap;html=1;fillColor=#e3c800;fontColor=#000000;strokeColor=#B09500;" parent="1" vertex="1">
          <mxGeometry x="354" y="140" width="90" height="30" as="geometry" />
        </mxCell>
        <mxCell id="_7imUFlFsDGHjJVqN3OE-7" value="Rs Menjawab Permintaan Pihak Luar" style="rounded=1;whiteSpace=wrap;html=1;fillColor=#f5f5f5;fontColor=#333333;strokeColor=#666666;" parent="1" vertex="1">
          <mxGeometry x="630" y="140" width="110" height="40" as="geometry" />
        </mxCell>
        <mxCell id="_7imUFlFsDGHjJVqN3OE-27" value="" style="endArrow=classic;html=1;rounded=0;entryX=-0.002;entryY=0.573;entryDx=0;entryDy=0;entryPerimeter=0;" parent="1" target="_7imUFlFsDGHjJVqN3OE-2" edge="1">
          <mxGeometry width="50" height="50" relative="1" as="geometry">
            <mxPoint x="150" y="60" as="sourcePoint" />
            <mxPoint x="200" y="10" as="targetPoint" />
          </mxGeometry>
        </mxCell>
        <mxCell id="_7imUFlFsDGHjJVqN3OE-28" value="" style="endArrow=classic;html=1;rounded=0;entryX=0.418;entryY=0.015;entryDx=0;entryDy=0;entryPerimeter=0;" parent="1" target="_7imUFlFsDGHjJVqN3OE-3" edge="1">
          <mxGeometry width="50" height="50" relative="1" as="geometry">
            <mxPoint x="360" y="60" as="sourcePoint" />
            <mxPoint x="500" y="40" as="targetPoint" />
            <Array as="points">
              <mxPoint x="520" y="60" />
            </Array>
          </mxGeometry>
        </mxCell>
        <mxCell id="_7imUFlFsDGHjJVqN3OE-30" value="" style="endArrow=classic;html=1;rounded=0;entryX=0.5;entryY=0;entryDx=0;entryDy=0;" parent="1" edge="1">
          <mxGeometry width="50" height="50" relative="1" as="geometry">
            <mxPoint x="500" y="140" as="sourcePoint" />
            <mxPoint x="500" y="180" as="targetPoint" />
          </mxGeometry>
        </mxCell>
        <mxCell id="_7imUFlFsDGHjJVqN3OE-33" value="" style="endArrow=classic;html=1;rounded=0;entryX=0.459;entryY=-0.003;entryDx=0;entryDy=0;entryPerimeter=0;exitX=0.803;exitY=1.009;exitDx=0;exitDy=0;exitPerimeter=0;" parent="1" target="LmXGOHWiqXPE8UfbUwiv-1" edge="1" source="_7imUFlFsDGHjJVqN3OE-4">
          <mxGeometry width="50" height="50" relative="1" as="geometry">
            <mxPoint x="97" y="80" as="sourcePoint" />
            <mxPoint x="207.29999999999995" y="190.12" as="targetPoint" />
          </mxGeometry>
        </mxCell>
        <mxCell id="_7imUFlFsDGHjJVqN3OE-44" value="" style="endArrow=classic;html=1;rounded=0;entryX=0;entryY=0.5;entryDx=0;entryDy=0;exitX=0.5;exitY=1;exitDx=0;exitDy=0;" parent="1" target="LmXGOHWiqXPE8UfbUwiv-4" edge="1" source="LmXGOHWiqXPE8UfbUwiv-1">
          <mxGeometry width="50" height="50" relative="1" as="geometry">
            <mxPoint x="220" y="230" as="sourcePoint" />
            <mxPoint x="185" y="290" as="targetPoint" />
            <Array as="points">
              <mxPoint x="130" y="290" />
            </Array>
          </mxGeometry>
        </mxCell>
        <mxCell id="LmXGOHWiqXPE8UfbUwiv-1" value="Unit Luar Rumah Sakit" style="ellipse;whiteSpace=wrap;html=1;fillColor=#1ba1e2;fontColor=#ffffff;strokeColor=#006EAF;" vertex="1" parent="1">
          <mxGeometry x="80" y="170" width="100" height="70" as="geometry" />
        </mxCell>
        <mxCell id="LmXGOHWiqXPE8UfbUwiv-2" value="Penunjang Medis" style="rounded=0;whiteSpace=wrap;html=1;fillColor=#dae8fc;strokeColor=#6c8ebf;" vertex="1" parent="1">
          <mxGeometry x="470" y="180" width="120" height="60" as="geometry" />
        </mxCell>
        <mxCell id="LmXGOHWiqXPE8UfbUwiv-4" value="Pengembalian Dokumen Rekam Medis" style="rounded=0;whiteSpace=wrap;html=1;fillColor=#dae8fc;strokeColor=#6c8ebf;" vertex="1" parent="1">
          <mxGeometry x="360" y="260" width="120" height="60" as="geometry" />
        </mxCell>
        <mxCell id="LmXGOHWiqXPE8UfbUwiv-6" value="" style="endArrow=classic;html=1;rounded=0;exitX=0.5;exitY=1;exitDx=0;exitDy=0;entryX=1;entryY=0.5;entryDx=0;entryDy=0;" edge="1" parent="1" source="LmXGOHWiqXPE8UfbUwiv-2" target="LmXGOHWiqXPE8UfbUwiv-4">
          <mxGeometry width="50" height="50" relative="1" as="geometry">
            <mxPoint x="520" y="260" as="sourcePoint" />
            <mxPoint x="570" y="210" as="targetPoint" />
            <Array as="points">
              <mxPoint x="530" y="290" />
            </Array>
          </mxGeometry>
        </mxCell>
        <mxCell id="LmXGOHWiqXPE8UfbUwiv-7" value="Rekam Medis" style="rounded=0;whiteSpace=wrap;html=1;fillColor=#dae8fc;strokeColor=#6c8ebf;" vertex="1" parent="1">
          <mxGeometry x="360" y="350" width="120" height="60" as="geometry" />
        </mxCell>
        <mxCell id="LmXGOHWiqXPE8UfbUwiv-8" value="Penyimpanan Rekam Medis/Filling" style="rounded=0;whiteSpace=wrap;html=1;fillColor=#dae8fc;strokeColor=#6c8ebf;" vertex="1" parent="1">
          <mxGeometry x="360" y="440" width="120" height="60" as="geometry" />
        </mxCell>
        <mxCell id="LmXGOHWiqXPE8UfbUwiv-9" value="" style="endArrow=classic;html=1;rounded=0;entryX=0.5;entryY=0;entryDx=0;entryDy=0;" edge="1" parent="1" target="_7imUFlFsDGHjJVqN3OE-3">
          <mxGeometry width="50" height="50" relative="1" as="geometry">
            <mxPoint x="529.38" y="85" as="sourcePoint" />
            <mxPoint x="530" y="180" as="targetPoint" />
          </mxGeometry>
        </mxCell>
        <mxCell id="LmXGOHWiqXPE8UfbUwiv-10" value="" style="endArrow=classic;html=1;rounded=0;entryX=1;entryY=0.5;entryDx=0;entryDy=0;" edge="1" parent="1" target="_7imUFlFsDGHjJVqN3OE-3">
          <mxGeometry width="50" height="50" relative="1" as="geometry">
            <mxPoint x="530" y="105" as="sourcePoint" />
            <mxPoint x="450" y="135" as="targetPoint" />
          </mxGeometry>
        </mxCell>
        <mxCell id="_7imUFlFsDGHjJVqN3OE-3" value="Direktur Rumah Sakit" style="rounded=0;whiteSpace=wrap;html=1;fillColor=#dae8fc;strokeColor=#6c8ebf;" parent="1" vertex="1">
          <mxGeometry x="470" y="80" width="120" height="60" as="geometry" />
        </mxCell>
        <mxCell id="LmXGOHWiqXPE8UfbUwiv-11" value="" style="endArrow=classic;html=1;rounded=0;entryX=1;entryY=0.5;entryDx=0;entryDy=0;" edge="1" parent="1" target="_7imUFlFsDGHjJVqN3OE-5">
          <mxGeometry width="50" height="50" relative="1" as="geometry">
            <mxPoint x="500" y="155" as="sourcePoint" />
            <mxPoint x="470" y="150" as="targetPoint" />
          </mxGeometry>
        </mxCell>
        <mxCell id="LmXGOHWiqXPE8UfbUwiv-12" value="" style="endArrow=classic;html=1;rounded=0;exitX=0.75;exitY=1;exitDx=0;exitDy=0;entryX=0.75;entryY=0;entryDx=0;entryDy=0;fillColor=#e51400;strokeColor=#B20000;" edge="1" parent="1" source="LmXGOHWiqXPE8UfbUwiv-4" target="LmXGOHWiqXPE8UfbUwiv-7">
          <mxGeometry width="50" height="50" relative="1" as="geometry">
            <mxPoint x="470" y="420" as="sourcePoint" />
            <mxPoint x="520" y="370" as="targetPoint" />
          </mxGeometry>
        </mxCell>
        <mxCell id="LmXGOHWiqXPE8UfbUwiv-13" value="Dokumen RM sampai di lingkup RS" style="rounded=1;whiteSpace=wrap;html=1;fillColor=#f5f5f5;fontColor=#333333;strokeColor=#666666;" vertex="1" parent="1">
          <mxGeometry x="630" y="250" width="110" height="40" as="geometry" />
        </mxCell>
        <mxCell id="LmXGOHWiqXPE8UfbUwiv-14" value="" style="endArrow=classic;html=1;rounded=0;exitX=1.025;exitY=0.829;exitDx=0;exitDy=0;exitPerimeter=0;entryX=0.835;entryY=1.034;entryDx=0;entryDy=0;entryPerimeter=0;fillColor=#e51400;strokeColor=#B20000;" edge="1" parent="1" source="LmXGOHWiqXPE8UfbUwiv-4" target="LmXGOHWiqXPE8UfbUwiv-2">
          <mxGeometry width="50" height="50" relative="1" as="geometry">
            <mxPoint x="490" y="320" as="sourcePoint" />
            <mxPoint x="540" y="270" as="targetPoint" />
            <Array as="points">
              <mxPoint x="570" y="310" />
              <mxPoint x="570" y="270" />
            </Array>
          </mxGeometry>
        </mxCell>
        <mxCell id="LmXGOHWiqXPE8UfbUwiv-15" value="" style="endArrow=classic;html=1;rounded=0;entryX=0.83;entryY=1.012;entryDx=0;entryDy=0;entryPerimeter=0;fillColor=#e51400;strokeColor=#B20000;" edge="1" parent="1" target="_7imUFlFsDGHjJVqN3OE-3">
          <mxGeometry width="50" height="50" relative="1" as="geometry">
            <mxPoint x="570" y="180" as="sourcePoint" />
            <mxPoint x="568" y="142" as="targetPoint" />
          </mxGeometry>
        </mxCell>
        <mxCell id="LmXGOHWiqXPE8UfbUwiv-16" value="" style="endArrow=classic;html=1;rounded=0;entryX=0;entryY=0.5;entryDx=0;entryDy=0;fillColor=#e51400;strokeColor=#B20000;" edge="1" parent="1" target="_7imUFlFsDGHjJVqN3OE-7">
          <mxGeometry width="50" height="50" relative="1" as="geometry">
            <mxPoint x="570" y="160" as="sourcePoint" />
            <mxPoint x="630" y="140" as="targetPoint" />
          </mxGeometry>
        </mxCell>
        <mxCell id="LmXGOHWiqXPE8UfbUwiv-18" value="" style="endArrow=classic;html=1;rounded=0;entryX=0;entryY=0.5;entryDx=0;entryDy=0;fillColor=#e51400;strokeColor=#B20000;" edge="1" parent="1" target="LmXGOHWiqXPE8UfbUwiv-13">
          <mxGeometry width="50" height="50" relative="1" as="geometry">
            <mxPoint x="570" y="270" as="sourcePoint" />
            <mxPoint x="630" y="220" as="targetPoint" />
          </mxGeometry>
        </mxCell>
        <mxCell id="LmXGOHWiqXPE8UfbUwiv-19" value="" style="endArrow=classic;html=1;rounded=0;entryX=0.973;entryY=0.361;entryDx=0;entryDy=0;entryPerimeter=0;exitX=0.838;exitY=0.005;exitDx=0;exitDy=0;exitPerimeter=0;fillColor=#e51400;strokeColor=#B20000;" edge="1" parent="1" target="_7imUFlFsDGHjJVqN3OE-2">
          <mxGeometry width="50" height="50" relative="1" as="geometry">
            <mxPoint x="574.56" y="80.00000000000001" as="sourcePoint" />
            <mxPoint x="360" y="45.39" as="targetPoint" />
            <Array as="points">
              <mxPoint x="574" y="45.7" />
            </Array>
          </mxGeometry>
        </mxCell>
        <mxCell id="LmXGOHWiqXPE8UfbUwiv-20" value="" style="endArrow=none;dashed=1;html=1;rounded=0;" edge="1" parent="1">
          <mxGeometry width="50" height="50" relative="1" as="geometry">
            <mxPoint x="250" y="380" as="sourcePoint" />
            <mxPoint x="360" y="300" as="targetPoint" />
            <Array as="points">
              <mxPoint x="250" y="300" />
            </Array>
          </mxGeometry>
        </mxCell>
        <mxCell id="LmXGOHWiqXPE8UfbUwiv-21" value="" style="endArrow=classic;html=1;rounded=0;entryX=0;entryY=0.5;entryDx=0;entryDy=0;" edge="1" parent="1" target="LmXGOHWiqXPE8UfbUwiv-22">
          <mxGeometry width="50" height="50" relative="1" as="geometry">
            <mxPoint x="250" y="380" as="sourcePoint" />
            <mxPoint x="20" y="410" as="targetPoint" />
            <Array as="points">
              <mxPoint x="20" y="380" />
              <mxPoint x="20" y="415" />
            </Array>
          </mxGeometry>
        </mxCell>
        <mxCell id="LmXGOHWiqXPE8UfbUwiv-22" value="Penjelasan Keperluan Peminjaman Dokumen RM" style="rounded=1;whiteSpace=wrap;html=1;" vertex="1" parent="1">
          <mxGeometry x="70" y="400" width="150" height="30" as="geometry" />
        </mxCell>
        <mxCell id="LmXGOHWiqXPE8UfbUwiv-23" value="Menyerahkan Surat Permintaan BON/Ijin Peminjaman Dokumen RM" style="rounded=1;whiteSpace=wrap;html=1;" vertex="1" parent="1">
          <mxGeometry x="65" y="450" width="160" height="40" as="geometry" />
        </mxCell>
        <mxCell id="LmXGOHWiqXPE8UfbUwiv-24" value="Disetujui" style="rounded=1;whiteSpace=wrap;html=1;" vertex="1" parent="1">
          <mxGeometry x="70" y="510" width="150" height="30" as="geometry" />
        </mxCell>
        <mxCell id="LmXGOHWiqXPE8UfbUwiv-25" value="Pengisian Bon Peminjaman Dokumen RM/Pengisian Dibuku Ekpedisi" style="rounded=1;whiteSpace=wrap;html=1;" vertex="1" parent="1">
          <mxGeometry x="70" y="562" width="150" height="46" as="geometry" />
        </mxCell>
        <mxCell id="LmXGOHWiqXPE8UfbUwiv-26" value="" style="endArrow=classic;html=1;rounded=0;entryX=0;entryY=0.5;entryDx=0;entryDy=0;" edge="1" parent="1" target="LmXGOHWiqXPE8UfbUwiv-23">
          <mxGeometry width="50" height="50" relative="1" as="geometry">
            <mxPoint x="20" y="410" as="sourcePoint" />
            <mxPoint x="80" y="440" as="targetPoint" />
            <Array as="points">
              <mxPoint x="20" y="470" />
            </Array>
          </mxGeometry>
        </mxCell>
        <mxCell id="LmXGOHWiqXPE8UfbUwiv-27" value="" style="endArrow=classic;html=1;rounded=0;entryX=0;entryY=0.5;entryDx=0;entryDy=0;" edge="1" parent="1" target="LmXGOHWiqXPE8UfbUwiv-24">
          <mxGeometry width="50" height="50" relative="1" as="geometry">
            <mxPoint x="20" y="470" as="sourcePoint" />
            <mxPoint x="70" y="510" as="targetPoint" />
            <Array as="points">
              <mxPoint x="20" y="525" />
            </Array>
          </mxGeometry>
        </mxCell>
        <mxCell id="LmXGOHWiqXPE8UfbUwiv-28" value="" style="endArrow=classic;html=1;rounded=0;entryX=0;entryY=0.5;entryDx=0;entryDy=0;" edge="1" parent="1" target="LmXGOHWiqXPE8UfbUwiv-25">
          <mxGeometry width="50" height="50" relative="1" as="geometry">
            <mxPoint x="20" y="520" as="sourcePoint" />
            <mxPoint x="100" y="540" as="targetPoint" />
            <Array as="points">
              <mxPoint x="20" y="585" />
            </Array>
          </mxGeometry>
        </mxCell>
        <mxCell id="LmXGOHWiqXPE8UfbUwiv-30" value="" style="endArrow=classic;html=1;rounded=0;exitX=0.98;exitY=0.598;exitDx=0;exitDy=0;exitPerimeter=0;entryX=0.5;entryY=0;entryDx=0;entryDy=0;fillColor=#e51400;strokeColor=#B20000;" edge="1" parent="1" source="LmXGOHWiqXPE8UfbUwiv-1" target="LmXGOHWiqXPE8UfbUwiv-4">
          <mxGeometry width="50" height="50" relative="1" as="geometry">
            <mxPoint x="230" y="240" as="sourcePoint" />
            <mxPoint x="280" y="190" as="targetPoint" />
            <Array as="points">
              <mxPoint x="420" y="212" />
            </Array>
          </mxGeometry>
        </mxCell>
        <mxCell id="LmXGOHWiqXPE8UfbUwiv-31" value="" style="endArrow=classic;html=1;rounded=0;exitX=0.148;exitY=0.986;exitDx=0;exitDy=0;exitPerimeter=0;entryX=0.146;entryY=-0.007;entryDx=0;entryDy=0;entryPerimeter=0;fillColor=#a0522d;strokeColor=#6D1F00;" edge="1" parent="1" source="LmXGOHWiqXPE8UfbUwiv-7" target="LmXGOHWiqXPE8UfbUwiv-8">
          <mxGeometry width="50" height="50" relative="1" as="geometry">
            <mxPoint x="340" y="480" as="sourcePoint" />
            <mxPoint x="390" y="430" as="targetPoint" />
          </mxGeometry>
        </mxCell>
        <mxCell id="LmXGOHWiqXPE8UfbUwiv-32" value="" style="endArrow=classic;html=1;rounded=0;exitX=0.148;exitY=0.986;exitDx=0;exitDy=0;exitPerimeter=0;" edge="1" parent="1">
          <mxGeometry width="50" height="50" relative="1" as="geometry">
            <mxPoint x="410" y="410" as="sourcePoint" />
            <mxPoint x="410" y="440" as="targetPoint" />
          </mxGeometry>
        </mxCell>
        <mxCell id="LmXGOHWiqXPE8UfbUwiv-33" value="" style="endArrow=classic;html=1;rounded=0;exitX=0.148;exitY=0.986;exitDx=0;exitDy=0;exitPerimeter=0;fillColor=#e51400;strokeColor=#B20000;" edge="1" parent="1">
          <mxGeometry width="50" height="50" relative="1" as="geometry">
            <mxPoint x="440" y="410" as="sourcePoint" />
            <mxPoint x="440" y="440" as="targetPoint" />
          </mxGeometry>
        </mxCell>
        <mxCell id="LmXGOHWiqXPE8UfbUwiv-34" value="" style="endArrow=classic;html=1;rounded=0;entryX=0.5;entryY=0;entryDx=0;entryDy=0;fillColor=#e51400;strokeColor=#B20000;" edge="1" parent="1">
          <mxGeometry width="50" height="50" relative="1" as="geometry">
            <mxPoint x="520" y="140" as="sourcePoint" />
            <mxPoint x="520" y="180" as="targetPoint" />
          </mxGeometry>
        </mxCell>
        <mxCell id="LmXGOHWiqXPE8UfbUwiv-35" value="" style="endArrow=classic;html=1;rounded=0;entryX=0.688;entryY=0.991;entryDx=0;entryDy=0;entryPerimeter=0;exitX=0;exitY=0.167;exitDx=0;exitDy=0;exitPerimeter=0;fillColor=#a0522d;strokeColor=#6D1F00;" edge="1" parent="1" source="LmXGOHWiqXPE8UfbUwiv-4" target="LmXGOHWiqXPE8UfbUwiv-1">
          <mxGeometry width="50" height="50" relative="1" as="geometry">
            <mxPoint x="250" y="290" as="sourcePoint" />
            <mxPoint x="300" y="240" as="targetPoint" />
            <Array as="points">
              <mxPoint x="149" y="270" />
            </Array>
          </mxGeometry>
        </mxCell>
        <mxCell id="LmXGOHWiqXPE8UfbUwiv-36" value="" style="rounded=1;whiteSpace=wrap;html=1;fillColor=#e51400;fontColor=#ffffff;strokeColor=#B20000;" vertex="1" parent="1">
          <mxGeometry x="560" y="410" width="40" height="10" as="geometry" />
        </mxCell>
        <mxCell id="LmXGOHWiqXPE8UfbUwiv-37" value="" style="rounded=1;whiteSpace=wrap;html=1;fillColor=#a0522d;fontColor=#ffffff;strokeColor=#6D1F00;" vertex="1" parent="1">
          <mxGeometry x="560" y="430" width="40" height="10" as="geometry" />
        </mxCell>
        <mxCell id="LmXGOHWiqXPE8UfbUwiv-38" value="" style="rounded=1;whiteSpace=wrap;html=1;fillColor=#1A1A1A;fontColor=#ffffff;strokeColor=#B20000;" vertex="1" parent="1">
          <mxGeometry x="560" y="450" width="40" height="10" as="geometry" />
        </mxCell>
        <mxCell id="LmXGOHWiqXPE8UfbUwiv-41" value="&lt;span style=&quot;color: rgb(0, 0, 0); font-family: Helvetica; font-size: 10px; font-style: normal; font-variant-ligatures: normal; font-variant-caps: normal; font-weight: 400; letter-spacing: normal; orphans: 2; text-align: center; text-indent: 0px; text-transform: none; widows: 2; word-spacing: 0px; -webkit-text-stroke-width: 0px; white-space: nowrap; background-color: rgb(251, 251, 251); text-decoration-thickness: initial; text-decoration-style: initial; text-decoration-color: initial; float: none; display: inline !important;&quot;&gt;Peminjaman DRM&lt;/span&gt;" style="text;whiteSpace=wrap;html=1;" vertex="1" parent="1">
          <mxGeometry x="610" y="440" width="120" height="40" as="geometry" />
        </mxCell>
        <mxCell id="LmXGOHWiqXPE8UfbUwiv-42" value="&lt;span style=&quot;color: rgb(0, 0, 0); font-family: Helvetica; font-size: 10px; font-style: normal; font-variant-ligatures: normal; font-variant-caps: normal; font-weight: 400; letter-spacing: normal; orphans: 2; text-align: center; text-indent: 0px; text-transform: none; widows: 2; word-spacing: 0px; -webkit-text-stroke-width: 0px; white-space: nowrap; background-color: rgb(251, 251, 251); text-decoration-thickness: initial; text-decoration-style: initial; text-decoration-color: initial; display: inline !important; float: none;&quot;&gt;Pengambilan DRM&lt;/span&gt;" style="text;whiteSpace=wrap;html=1;" vertex="1" parent="1">
          <mxGeometry x="610" y="400" width="120" height="20" as="geometry" />
        </mxCell>
        <mxCell id="LmXGOHWiqXPE8UfbUwiv-43" value="&lt;span style=&quot;color: rgb(0, 0, 0); font-family: Helvetica; font-size: 10px; font-style: normal; font-variant-ligatures: normal; font-variant-caps: normal; font-weight: 400; letter-spacing: normal; orphans: 2; text-align: center; text-indent: 0px; text-transform: none; widows: 2; word-spacing: 0px; -webkit-text-stroke-width: 0px; white-space: nowrap; background-color: rgb(251, 251, 251); text-decoration-thickness: initial; text-decoration-style: initial; text-decoration-color: initial; float: none; display: inline !important;&quot;&gt;Menyerahkan DRM&lt;/span&gt;" style="text;whiteSpace=wrap;html=1;" vertex="1" parent="1">
          <mxGeometry x="610" y="420" width="120" height="40" as="geometry" />
        </mxCell>
      </root>
    </mxGraphModel>
  </diagram>
</mxfile>
